HIERARCHY
ROOT joint_0
{
	OFFSET 0.000000 0.000000 0.000000
	CHANNELS 6 Xposition Yposition Zposition Zrotation Yrotation Xrotation 
	JOINT joint_1
	{
		OFFSET 6.579712 -2.778931 100.531982
		CHANNELS 3 Zrotation Yrotation Xrotation
		JOINT joint_2
		{
			OFFSET -3.313232 -1.302856 91.974976
			CHANNELS 3 Zrotation Yrotation Xrotation
			JOINT joint_3
			{
				OFFSET -3.421509 -1.641846 91.864014
				CHANNELS 3 Zrotation Yrotation Xrotation
				JOINT joint_4
				{
					OFFSET 7.697388 -4.642578 123.278931
					CHANNELS 3 Zrotation Yrotation Xrotation
					JOINT joint_5
					{
						OFFSET 24.842529 -5.941528 79.695068
						CHANNELS 3 Zrotation Yrotation Xrotation
						End Site
						{
							OFFSET 0.000000 0.000000 0.000000
						}
					}
				}
				JOINT joint_6
				{
					OFFSET -0.159668 -29.112976 68.364014
					CHANNELS 3 Zrotation Yrotation Xrotation
					JOINT joint_7
					{
						OFFSET -18.356079 -115.987061 -20.069092
						CHANNELS 3 Zrotation Yrotation Xrotation
						JOINT joint_8
						{
							OFFSET 31.719482 -11.733276 -267.170898
							CHANNELS 3 Zrotation Yrotation Xrotation
							JOINT joint_9
							{
								OFFSET 29.329956 -5.879517 -234.654053
								CHANNELS 3 Zrotation Yrotation Xrotation
								End Site
								{
									OFFSET 0.000000 0.000000 0.000000
								}
							}
						}
					}
				}
				JOINT joint_10
				{
					OFFSET 8.802979 23.897949 69.798950
					CHANNELS 3 Zrotation Yrotation Xrotation
					JOINT joint_11
					{
						OFFSET 21.159058 115.524292 -19.981934
						CHANNELS 3 Zrotation Yrotation Xrotation
						JOINT joint_12
						{
							OFFSET 18.809204 5.403442 -268.593018
							CHANNELS 3 Zrotation Yrotation Xrotation
							JOINT joint_13
							{
								OFFSET 20.807861 0.421265 -235.639038
								CHANNELS 3 Zrotation Yrotation Xrotation
								End Site
								{
									OFFSET 0.000000 0.000000 0.000000
								}
							}
						}
					}
				}
			}
		}
	}
	JOINT joint_14
	{
		OFFSET -9.713379 -79.513916 -99.348022
		CHANNELS 3 Zrotation Yrotation Xrotation
		JOINT joint_15
		{
			OFFSET -40.607788 -6.518372 -502.938019
			CHANNELS 3 Zrotation Yrotation Xrotation
			JOINT joint_16
			{
				OFFSET -19.807617 -7.437378 -399.590012
				CHANNELS 3 Zrotation Yrotation Xrotation
				JOINT joint_17
				{
					OFFSET 171.701660 -44.751282 -77.782000
					CHANNELS 3 Zrotation Yrotation Xrotation
					End Site
					{
						OFFSET 0.000000 0.000000 0.000000
					}
				}
			}
		}
	}
	JOINT joint_18
	{
		OFFSET 17.854858 79.618652 -98.128052
		CHANNELS 3 Zrotation Yrotation Xrotation
		JOINT joint_19
		{
			OFFSET -24.848877 16.861816 -503.722992
			CHANNELS 3 Zrotation Yrotation Xrotation
			JOINT joint_20
			{
				OFFSET -30.162476 14.470093 -398.750008
				CHANNELS 3 Zrotation Yrotation Xrotation
				JOINT joint_21
				{
					OFFSET 176.096680 -10.987549 -80.021000
					CHANNELS 3 Zrotation Yrotation Xrotation
					End Site
					{
						OFFSET 0.000000 0.000000 0.000000
					}
				}
			}
		}
	}
}
MOTION
Frames: 13
Frame Time: 0.016667
-2431.736328 928.265503 1095.784058 4.691366 -0.751145 -1.107327 -1.266864 -1.638418 1.086980 -1.249717 0.270140 -0.341119 -1.242066 -0.276956 0.177419 -1.296896 1.766979 4.568781 0.000000 0.000000 0.000000 -4.019842 -0.808581 -4.457255 -17.081257 -3.265958 -2.833137 174.422815 -55.662913 -146.683798 0.000000 0.000000 0.000000 0.923100 -1.702854 1.605884 1.894140 6.907614 1.791216 -177.107829 -47.239418 165.023491 0.000000 0.000000 0.000000 -0.341653 1.186889 -1.139602 -0.626061 0.287206 2.503374 -0.439023 -1.274948 -0.530793 0.000000 0.000000 0.000000 0.361859 1.569083 3.902899 0.596741 -0.100071 -1.287918 0.450207 -1.237431 0.126708 0.000000 0.000000 0.000000 
-2431.696289 928.299744 1095.759033 4.658824 -0.762575 -1.117275 -1.269096 -1.637920 1.079573 -1.251783 0.269089 -0.340175 -1.244125 -0.276256 0.176928 -1.295602 1.792890 4.569716 0.000000 0.000000 0.000000 -4.016079 -0.773042 -4.434195 -17.027576 -3.262584 -2.849533 174.453841 -55.669400 -146.753749 0.000000 0.000000 0.000000 0.942140 -1.689987 1.608996 1.912156 6.911546 1.815909 -177.089062 -47.223024 164.996599 0.000000 0.000000 0.000000 -0.330422 1.197267 -1.138936 -0.615493 0.285429 2.513913 -0.428720 -1.257502 -0.521586 0.000000 0.000000 0.000000 0.376411 1.576332 3.912356 0.612317 -0.075400 -1.286174 0.464159 -1.249070 0.132305 0.000000 0.000000 0.000000 
-2431.649170 928.326416 1095.730957 4.623929 -0.776701 -1.128967 -1.269433 -1.640177 1.071460 -1.251885 0.268183 -0.339563 -1.244174 -0.274328 0.176695 -1.295079 1.814906 4.572036 0.000000 0.000000 0.000000 -4.012622 -0.732633 -4.413233 -16.972020 -3.258719 -2.861984 174.484032 -55.677868 -146.829270 0.000000 0.000000 0.000000 0.960389 -1.680587 1.614121 1.920376 6.917149 1.832675 -177.076636 -47.210384 164.977964 0.000000 0.000000 0.000000 -0.318408 1.209366 -1.137117 -0.604308 0.286987 2.527352 -0.417483 -1.243664 -0.512897 0.000000 0.000000 0.000000 0.391776 1.588355 3.927109 0.629087 -0.053035 -1.290034 0.478955 -1.260808 0.138277 0.000000 0.000000 0.000000 
-2431.600586 928.347290 1095.701050 4.588089 -0.793063 -1.141751 -1.269680 -1.643437 1.061566 -1.251804 0.268522 -0.339012 -1.244112 -0.274062 0.176626 -1.294544 1.835736 4.573978 0.000000 0.000000 0.000000 -4.006541 -0.689153 -4.391873 -16.919872 -3.255111 -2.872893 174.512146 -55.687024 -146.901827 0.000000 0.000000 0.000000 0.982336 -1.673020 1.620266 1.920362 6.924657 1.845124 -177.068803 -47.200094 164.964720 0.000000 0.000000 0.000000 -0.306132 1.223029 -1.134524 -0.592960 0.290444 2.542698 -0.405890 -1.231695 -0.504533 0.000000 0.000000 0.000000 0.407897 1.603029 3.945111 0.646898 -0.030763 -1.297309 0.494530 -1.272381 0.144611 0.000000 0.000000 0.000000 
-2431.557373 928.367920 1095.671021 4.553899 -0.809041 -1.153068 -1.269685 -1.648994 1.047605 -1.251235 0.269077 -0.336801 -1.243670 -0.273087 0.175147 -1.294431 1.852251 4.576373 0.000000 0.000000 0.000000 -4.000387 -0.649804 -4.370919 -16.876362 -3.249293 -2.883334 174.535288 -55.695205 -146.962165 0.000000 0.000000 0.000000 0.999342 -1.661218 1.627160 1.915698 6.932879 1.853435 -177.066469 -47.190892 164.959262 0.000000 0.000000 0.000000 -0.294361 1.236417 -1.134092 -0.582421 0.293554 2.559672 -0.394961 -1.221167 -0.496845 0.000000 0.000000 0.000000 0.423995 1.615731 3.961791 0.664750 -0.006349 -1.304901 0.510034 -1.284442 0.150883 0.000000 0.000000 0.000000 
-2431.524658 928.390137 1095.640991 4.520677 -0.825180 -1.161854 -1.268625 -1.653978 1.027588 -1.249379 0.269160 -0.332794 -1.242082 -0.273809 0.172321 -1.294435 1.865313 4.578597 0.000000 0.000000 0.000000 -3.996765 -0.618323 -4.350611 -16.849745 -3.240176 -2.894219 174.549760 -55.699972 -146.997536 0.000000 0.000000 0.000000 1.010074 -1.641104 1.634560 1.904680 6.941901 1.856064 -177.073050 -47.183142 164.963060 0.000000 0.000000 0.000000 -0.283011 1.250020 -1.137063 -0.572694 0.295892 2.578253 -0.384690 -1.212687 -0.489988 0.000000 0.000000 0.000000 0.440549 1.625816 3.974785 0.682959 0.022360 -1.310782 0.525806 -1.298105 0.157177 0.000000 0.000000 0.000000 
-2431.497070 928.413147 1095.610962 4.489440 -0.840927 -1.169449 -1.267548 -1.662074 1.004196 -1.247239 0.270822 -0.327653 -1.240330 -0.274213 0.168681 -1.294783 1.874792 4.581215 0.000000 0.000000 0.000000 -3.992860 -0.591315 -4.330403 -16.833449 -3.229350 -2.905360 174.558955 -55.703019 -147.018714 0.000000 0.000000 0.000000 1.017199 -1.617410 1.642136 1.888564 6.951790 1.854635 -177.085239 -47.176716 164.974143 0.000000 0.000000 0.000000 -0.272463 1.263520 -1.142115 -0.564090 0.297503 2.598835 -0.375413 -1.204582 -0.483678 0.000000 0.000000 0.000000 0.456973 1.633820 3.986811 0.701157 0.053433 -1.317348 0.541427 -1.312226 0.163374 0.000000 0.000000 0.000000 
-2431.471436 928.434692 1095.579956 4.462102 -0.856152 -1.176344 -1.266804 -1.669446 0.982180 -1.245590 0.269925 -0.324058 -1.238833 -0.272389 0.166027 -1.294774 1.880742 4.582147 0.000000 0.000000 0.000000 -3.989356 -0.566167 -4.309614 -16.817373 -3.217717 -2.917587 174.567995 -55.705546 -147.039281 0.000000 0.000000 0.000000 1.020610 -1.594814 1.648894 1.875653 6.960215 1.854936 -177.094994 -47.170194 164.984533 0.000000 0.000000 0.000000 -0.263543 1.277225 -1.148802 -0.557420 0.297988 2.621768 -0.367946 -1.195632 -0.477967 0.000000 0.000000 0.000000 0.472830 1.641390 4.000087 0.719024 0.082724 -1.327559 0.556581 -1.324989 0.169445 0.000000 0.000000 0.000000 
-2431.447754 928.451660 1095.547974 4.440218 -0.871083 -1.182890 -1.266248 -1.679247 0.960882 -1.243939 0.271927 -0.318674 -1.237615 -0.273276 0.162442 -1.294264 1.884899 4.580810 0.000000 0.000000 0.000000 -3.986484 -0.535657 -4.288652 -16.802507 -3.209534 -2.929491 174.577800 -55.708792 -147.061407 0.000000 0.000000 0.000000 1.038035 -1.581675 1.657142 1.862177 6.967400 1.857560 -177.102834 -47.169456 164.983219 0.000000 0.000000 0.000000 -0.257015 1.291149 -1.156547 -0.553411 0.298040 2.647159 -0.363001 -1.185267 -0.473027 0.000000 0.000000 0.000000 0.487298 1.649038 4.015723 0.735809 0.109437 -1.342398 0.570512 -1.335976 0.175072 0.000000 0.000000 0.000000 
-2431.427246 928.468933 1095.514038 4.422533 -0.886142 -1.189032 -1.265780 -1.686371 0.942068 -1.242646 0.270275 -0.315148 -1.236477 -0.272350 0.160117 -1.292942 1.885187 4.576226 0.000000 0.000000 0.000000 -3.984801 -0.506370 -4.268558 -16.787379 -3.200509 -2.941469 174.587661 -55.711688 -147.083049 0.000000 0.000000 0.000000 1.050887 -1.569479 1.663897 1.852081 6.973073 1.861914 -177.108194 -47.168532 164.981329 0.000000 0.000000 0.000000 -0.252324 1.306078 -1.165805 -0.551551 0.296741 2.675279 -0.360070 -1.173738 -0.468694 0.000000 0.000000 0.000000 0.501210 1.656886 4.032878 0.752274 0.134294 -1.360927 0.583984 -1.345700 0.180569 0.000000 0.000000 0.000000 
-2431.404053 928.492920 1095.473022 4.407245 -0.898298 -1.193733 -1.267923 -1.690682 0.925722 -1.244206 0.265491 -0.311973 -1.237921 -0.267202 0.157576 -1.290880 1.884477 4.569607 0.000000 0.000000 0.000000 -3.973999 -0.486228 -4.246227 -16.753448 -3.179674 -2.959714 174.600952 -55.710670 -147.124128 0.000000 0.000000 0.000000 1.010420 -1.536797 1.664926 1.862342 6.976767 1.870981 -177.099270 -47.150199 165.003349 0.000000 0.000000 0.000000 -0.248491 1.319482 -1.178573 -0.551126 0.293067 2.707159 -0.358368 -1.162789 -0.465068 0.000000 0.000000 0.000000 0.515537 1.661862 4.050384 0.769480 0.158165 -1.383867 0.597904 -1.355428 0.186270 0.000000 0.000000 0.000000 
-2431.443359 928.531921 1095.433960 4.397656 -0.915865 -1.199873 -1.272340 -1.693962 0.905900 -1.248061 0.253183 -0.306502 -1.241353 -0.257584 0.153711 -1.285281 1.904965 4.557441 0.000000 0.000000 0.000000 -3.932983 -0.496864 -4.200469 -16.709152 -3.132747 -3.009309 174.591406 -55.716266 -147.176331 0.000000 0.000000 0.000000 0.851041 -1.458444 1.622616 1.936800 6.955097 1.945383 -177.035510 -47.108854 165.039007 0.000000 0.000000 0.000000 -0.246916 1.335278 -1.191909 -0.553176 0.290618 2.741523 -0.358965 -1.150452 -0.462120 0.000000 0.000000 0.000000 0.528982 1.666879 4.069124 0.786020 0.184900 -1.407702 0.611107 -1.362434 0.191817 0.000000 0.000000 0.000000 
-2431.479980 928.577637 1095.386963 4.390230 -0.930783 -1.204538 -1.278870 -1.692717 0.887608 -1.254290 0.235480 -0.299782 -1.246855 -0.242532 0.149489 -1.278400 1.922098 4.541219 0.000000 0.000000 0.000000 -3.886090 -0.517699 -4.154178 -16.645489 -3.073496 -3.063587 174.585622 -55.718403 -147.246757 0.000000 0.000000 0.000000 0.637345 -1.359029 1.574196 2.032490 6.930199 2.023854 -176.957896 -47.050126 165.098224 0.000000 0.000000 0.000000 -0.246275 1.349778 -1.208953 -0.556783 0.285808 2.780045 -0.360873 -1.139085 -0.460017 0.000000 0.000000 0.000000 0.542838 1.669371 4.088061 0.803256 0.210570 -1.435632 0.624754 -1.368969 0.197594 0.000000 0.000000 0.000000 
